<svg xmlns:dc="http://purl.org/dc/elements/1.1/" xmlns:cc="http://creativecommons.org/ns#" xmlns:rdf="http://www.w3.org/1999/02/22-rdf-syntax-ns#" xmlns:svg="http://www.w3.org/2000/svg" xmlns="http://www.w3.org/2000/svg" xmlns:sodipodi="http://sodipodi.sourceforge.net/DTD/sodipodi-0.dtd" xmlns:inkscape="http://www.inkscape.org/namespaces/inkscape" version="1.1" width="959" height="593" id="svg3498" inkscape:version="0.91 r">
  <metadata id="metadata3620">
    <rdf:RDF>
      <cc:Work rdf:about="">
        <dc:format>image/svg+xml</dc:format>
        <dc:type rdf:resource="http://purl.org/dc/dcmitype/StillImage"/>
      </cc:Work>
    </rdf:RDF>
  </metadata>
  <defs id="defs3618"/>
  <style type="text/css" id="style3500">
.state 
{
	fill:#E0E0E0;
	stroke:#646464;
	stroke-width:1;
	stroke-opacity:1;
}

.territory
{
	opacity:0;
	fill:#E0E0E0;
	stroke:#646464;
	stroke-width:1;
	stroke-opacity:1;
}

.territoryborder
{
	opacity:0;
	fill:none;
	stroke:#A9A9A9;
	stroke-width:2;
}

.border
{
	opacity:1;
	fill:none;
	stroke:#A9A9A9;
	stroke-width:2;
}

.circle
{
   opacity:1;
   fill:#E0E0E0;
   stroke:#646464;
   stroke-width:1;
}

</style>
  <g id="fl">
    <title id="title3511">Florida</title>
    <path d="m 759.82 439.14 2.27 7.32 3.73 9.74 5.33 9.38 3.72 6.3 4.85 5.5 4.04 3.72 1.62 2.91 -1.13 1.29 -0.81 1.29 2.91 7.44 2.91 2.91 2.59 5.33 3.56 5.82 4.53 8.24 1.29 7.6 0.48 11.96 0.65 1.78 -0.32 3.39 -2.42 1.29 0.32 1.94 -0.65 1.94 0.32 2.42 0.48 1.94 -2.75 3.23 -3.07 1.45 -3.88 0.16 -1.45 1.62 -2.42 0.97 -1.29 -0.48 -1.13 -0.97 -0.32 -2.91 -0.81 -3.39 -3.39 -5.17 -3.56 -2.26 -3.88 -0.32 -0.81 1.29 -3.07 -4.36 -0.65 -3.56 -2.59 -4.04 -1.78 -1.13 -1.62 2.1 -1.78 -0.32 -2.1 -5.01 -2.91 -3.88 -2.91 -5.33 -2.59 -3.07 -3.56 -3.72 2.1 -2.42 3.23 -5.5 -0.16 -1.62 -4.53 -0.97 -1.62 0.65 0.32 0.65 2.59 0.97 -1.45 4.53 -0.81 0.48 -1.78 -4.04 -1.29 -4.85 -0.32 -2.75 1.45 -4.69 0 -9.54 -3.07 -3.72 -1.29 -3.07 -5.17 -1.29 -1.94 -0.65 -1.62 -2.59 -3.39 -1.62 -1.13 -3.39 -2.75 -0.97 -2.42 -3.72 -4.2 -1.45 -2.91 -1.45 -2.59 0 -4.04 0.81 -0.16 1.94 0.81 0.97 -0.48 1.13 -3.07 -0.16 -3.72 3.56 -3.56 1.94 -3.88 0 -3.23 1.29 -0.32 -2.75 -1.62 -1.94 -2.91 -1.13 -1.62 -1.45 -8.08 -3.88 -7.6 -1.78 -4.36 0.65 -5.98 0.48 -5.98 2.1 -3.48 0.61 -0.24 -8.05 -2.59 -1.94 -1.78 -1.78 0.32 -3.07 10.18 -1.29 25.54 -2.91 6.79 -0.65 5.44 0.28 2.59 3.88 1.45 1.45 8.1 0.52 10.82 -0.65 21.51 -1.29 5.45 -0.67 5.11 0.2 0.43 2.91 2.23 0.81 0.23 -4.63 -1.53 -4.17 1.31 -1.44 5.55 0.45 5.17 0.32 z m 12.55 132.41 2.42 -0.65 1.29 -0.24 1.45 -2.34 2.34 -1.62 1.29 0.48 1.7 0.32 0.4 1.05 -3.48 1.21 -4.2 1.45 -2.34 1.21 -0.89 -0.89 z m 13.5 -5.01 1.21 1.05 2.75 -2.1 5.33 -4.2 3.72 -3.88 2.51 -6.63 0.97 -1.7 0.16 -3.39 -0.73 0.48 -0.97 2.83 -1.45 4.61 -3.23 5.25 -4.36 4.2 -3.39 1.94 -2.51 1.54 z" id="FL" class="state fl"/>
  </g>
  <g id="nh">
    <title id="title3515">New Hampshire</title>
    <path d="m 880.8 142.42 0.87 -1.08 1.09 -3.29 -2.54 -0.91 -0.48 -3.07 -3.88 -1.13 -0.32 -2.75 -7.27 -23.44 -4.6 -14.54 -0.9 -0.01 -0.65 1.62 -0.65 -0.48 -0.97 -0.97 -1.45 1.94 -0.05 5.03 0.31 5.67 1.94 2.75 0 4.04 -3.72 5.06 -2.59 1.13 0 1.13 1.13 1.78 0 8.57 -0.81 9.21 -0.16 4.85 0.97 1.29 -0.16 4.53 -0.48 1.78 0.97 0.71 16.79 -4.42 2.17 -0.6 1.84 -2.77 3.61 -1.61 z" id="NH" class="state nh"/>
  </g>
  <g id="MI" class="state mi">
    <title id="title3519">Michigan</title>
    <path d="m 697.86 177.24 -3.23 -8.24 -2.26 -9.05 -2.42 -3.23 -2.59 -1.78 -1.62 1.13 -3.88 1.78 -1.94 5.01 -2.75 3.72 -1.13 0.65 -1.45 -0.65 c 0 0 -2.59 -1.45 -2.42 -2.1 0.16 -0.65 0.48 -5.01 0.48 -5.01 l 3.39 -1.29 0.81 -3.39 0.65 -2.59 2.42 -1.62 -0.32 -10.02 -1.62 -2.26 -1.29 -0.81 -0.81 -2.1 0.81 -0.81 1.62 0.32 0.16 -1.62 -2.42 -2.26 -1.29 -2.59 -2.59 0 -4.53 -1.45 -5.5 -3.39 -2.75 0 -0.65 0.65 -0.97 -0.48 -3.07 -2.26 -2.91 1.78 -2.91 2.26 0.32 3.56 0.97 0.32 2.1 0.48 0.48 0.81 -2.59 0.81 -2.59 0.32 -1.45 1.78 -0.32 2.1 0.32 1.62 0.32 5.5 -3.56 2.1 -0.65 -0.16 0 -4.2 1.29 -2.42 0.65 -2.42 -0.81 -0.81 -1.94 0.81 -0.97 4.2 -2.75 1.13 -1.78 1.94 -0.16 0.97 0.65 0.81 -0.65 2.59 -2.26 0.48 0 1.13 0.81 2.42 -1.13 6.14 -1.62 4.04 0.65 4.69 0.48 1.13 -0.81 2.42 -0.32 0.81 -0.32 2.75 3.56 5.98 2.91 6.47 1.45 4.85 -0.81 4.69 -0.97 5.98 -2.42 5.17 -0.32 2.75 -3.26 3.09 4.41 -0.16 21.42 -2.26 7.28 -0.99 0.1 1.67 6.85 -1.21 10.3 -1.5 3.85 -0.46 0.14 -0.59 0.16 -1.45 2.1 -3.72 2 -1.74 -0.22 -5.05 1.6 -1.6 1.09 -0.34 0.22 -3.56 1.54 -3.03 1.05 0.61 0.16 0.65 0.81 0.16 1.94 -0.97 -0.32 -9.54 z" id="MI-"/>
    <path d="m 581.62 82.06 1.83 -2.06 2.17 -0.8 5.37 -3.89 2.29 -0.57 0.46 0.46 -5.14 5.14 -3.32 1.94 -2.06 0.91 -1.6 -1.14 z m 86.17 32.13 0.65 2.51 3.23 0.16 1.29 -1.21 c 0 0 -0.08 -1.45 -0.4 -1.62 -0.32 -0.16 -1.62 -1.86 -1.62 -1.86 l -2.18 0.24 -1.62 0.16 -0.32 1.13 0.97 0.48 z m -100.3 -2.97 0.72 -0.58 2.75 -0.81 3.56 -2.26 0 -0.97 0.65 -0.65 5.98 -0.97 2.42 -1.94 4.36 -2.1 0.16 -1.29 1.94 -2.91 1.78 -0.81 1.29 -1.78 2.26 -2.26 4.36 -2.42 4.69 -0.48 1.13 1.13 -0.32 0.97 -3.72 0.97 -1.45 3.07 -2.26 0.81 -0.48 2.42 -2.42 3.23 -0.32 2.59 0.81 0.48 0.97 -1.13 3.56 -2.91 1.29 1.29 2.26 0 3.23 0.97 1.45 1.13 1.45 3.07 2.75 2.75 3.88 -0.16 1.45 -0.97 1.62 1.29 1.62 0.48 1.29 -0.81 1.13 0 1.62 -0.97 4.04 -3.56 3.39 -1.13 6.63 -0.32 4.53 -1.94 2.59 -1.29 1.45 0.16 0 5.66 0.48 0.32 2.91 0.81 1.94 -0.48 6.14 -1.62 1.13 -1.13 1.45 0.48 0 6.95 3.23 3.07 1.29 0.65 1.29 0.97 -1.29 0.32 -0.81 -0.32 -3.72 -0.48 -2.1 0.65 -2.26 -0.16 -3.23 1.45 -1.78 0 -5.82 -1.29 -5.17 0.16 -1.94 2.59 -6.95 0.65 -2.42 0.81 -1.13 3.07 -1.29 1.13 -0.48 -0.16 -1.45 -1.62 -4.53 2.42 -0.65 0 -1.13 -1.62 -0.81 0.16 -1.94 4.36 -0.97 4.04 -3.18 7 -1.18 -1.03 -1.37 -1.03 -1.94 -10.29 -3.54 -1.37 -2.05 -2.29 -12.12 -2.74 -2.86 -1.03 -8.23 -2.17 -7.89 -1.14 -3.72 -5.15 z" id="SP-"/>
  </g>
  <g id="vt">
    <title id="title3524">Vermont</title>
    <path d="m 844.48 154.06 0.32 -5.35 -2.89 -10.78 -0.65 -0.32 -2.91 -1.29 0.81 -2.91 -0.81 -2.1 -2.7 -4.64 0.97 -3.88 -0.81 -5.17 -2.42 -6.47 -0.81 -4.92 26.42 -6.73 0.31 5.52 1.92 2.74 0 4.04 -3.71 5.06 -2.59 1.14 -0.01 1.12 1.31 1.52 -0.31 8.1 -0.61 9.26 -0.23 5.56 0.97 1.29 -0.16 4.57 -0.48 1.69 1.01 0.73 -7.44 1.51 -4.5 0.72 z" id="VT" class="state vt"/>
  </g>
  <g id="me">
    <title id="title3528">Maine</title>
    <path d="m 922.84 78.83 1.94 2.1 2.26 3.72 0 1.94 -2.1 4.69 -1.94 0.65 -3.39 3.07 -4.85 5.5 c 0 0 -0.65 0 -1.29 0 -0.65 0 -0.97 -2.1 -0.97 -2.1 l -1.78 0.16 -0.97 1.45 -2.42 1.45 -0.97 1.45 1.62 1.45 -0.48 0.65 -0.48 2.75 -1.94 -0.16 0 -1.62 -0.32 -1.29 -1.45 0.32 -1.78 -3.23 -2.1 1.29 1.29 1.45 0.32 1.13 -0.81 1.29 0.32 3.07 0.16 1.62 -1.62 2.59 -2.91 0.48 -0.32 2.91 -5.33 3.07 -1.29 0.48 -1.62 -1.45 -3.07 3.56 0.97 3.23 -1.45 1.29 -0.16 4.36 -1.12 6.26 -2.46 -1.16 -0.48 -3.07 -3.88 -1.13 -0.32 -2.75 -7.27 -23.44 -4.7 -14.64 1.42 -0.12 1.51 0.41 0 -2.59 1.31 -4.5 2.59 -4.69 1.45 -4.04 -1.94 -2.42 0 -5.98 0.81 -0.97 0.81 -2.75 -0.16 -1.45 -0.16 -4.85 1.78 -4.85 2.91 -8.89 2.1 -4.2 1.29 0 1.29 0.16 0 1.13 1.29 2.26 2.75 0.65 0.81 -0.81 0 -0.97 4.04 -2.91 1.78 -1.78 1.45 0.16 5.98 2.42 1.94 0.97 9.05 29.91 5.98 0 0.81 1.94 0.16 4.85 2.91 2.26 0.81 0 0.16 -0.48 -0.48 -1.13 2.75 -0.16 z m -20.93 30.15 1.54 -1.54 1.37 1.05 0.57 2.42 -1.7 0.89 -1.78 -2.83 z m 6.71 -5.9 1.78 1.86 c 0 0 1.29 0.08 1.29 -0.24 0 -0.32 0.24 -2.02 0.24 -2.02 l 0.89 -0.81 -0.81 -1.78 -2.02 0.73 -1.37 2.26 z" id="ME" class="state me"/>
  </g>
  <g id="ri">
    <title id="title3532">Rhode Island</title>
    <path d="m 874.07 178.9 -3.7 -14.96 6.27 -1.85 2.19 1.93 3.31 4.32 2.69 4.4 -3 1.62 -1.29 -0.16 -1.13 1.78 -2.42 1.94 -2.91 0.97 z" id="RI" class="state ri"/>
  </g>
  <g id="ny">
    <title id="title3536">New York</title>
    <path d="m 830.38 188.75 -1.13 -0.97 -2.59 -0.16 -2.26 -1.94 -1.63 -6.13 -3.46 0.09 -2.44 -2.71 -19.39 4.38 -43 8.73 -7.53 1.23 -0.74 -6.47 1.43 -1.13 1.29 -1.13 0.97 -1.62 1.78 -1.13 1.94 -1.78 0.48 -1.62 2.1 -2.75 1.13 -0.97 -0.16 -0.97 -1.29 -3.07 -1.78 -0.16 -1.94 -6.14 2.91 -1.78 4.36 -1.45 4.04 -1.29 3.23 -0.48 6.3 -0.16 1.94 1.29 1.62 0.16 2.1 -1.29 2.59 -1.13 5.17 -0.48 2.1 -1.78 1.78 -3.23 1.62 -1.94 2.1 0 1.94 -1.13 0.16 -2.26 -1.45 -2.1 -0.32 -1.45 1.13 -2.1 0 -1.45 -1.78 0 -1.78 -0.81 -0.81 -1.13 -0.16 -2.59 5.82 -5.5 0.65 -0.81 1.45 -2.91 2.91 -4.53 2.75 -3.72 2.1 -2.42 2.42 -1.83 3.08 -1.25 5.5 -1.29 3.23 0.16 4.53 -1.45 7.57 -2.07 0.52 4.98 2.42 6.47 0.81 5.17 -0.97 3.88 2.59 4.53 0.81 2.1 -0.81 2.91 2.91 1.29 0.65 0.32 3.07 10.99 -0.54 5.06 -0.48 10.83 0.81 5.5 0.81 3.56 1.45 7.27 0 8.08 -1.13 2.26 1.84 1.99 0.8 1.68 -1.94 1.78 0.32 1.29 1.29 -0.32 1.45 -1.29 2.26 -2.59 1.13 -0.65 1.62 0.65 2.26 0.16 7.92 -3.88 2.91 -2.75 1.29 -1.45 4.2 1.62 -3.39 3.56 -3.88 2.91 -7.11 5.33 -2.59 0.97 -5.82 1.94 -4.04 1.13 -1.17 -0.53 -0.24 -3.69 0.48 -2.75 -0.16 -2.1 -2.81 -1.7 -4.53 -0.97 -3.88 -1.13 -3.72 -1.78 z" id="NY" class="state ny"/>
  </g>
  <g id="pa">
    <title id="title3540">Pennsylvania</title>
    <path d="m 825.12 224.69 1.31 -0.27 2.33 -1.25 1.21 -2.48 1.62 -2.26 3.23 -3.07 0 -0.81 -2.42 -1.62 -3.56 -2.42 -0.97 -2.59 -2.75 -0.32 -0.16 -1.13 -0.81 -2.75 2.26 -1.13 0.16 -2.42 -1.29 -1.29 0.16 -1.62 1.94 -3.07 0 -3.07 2.7 -2.65 -0.92 -0.67 -2.52 -0.19 -2.29 -1.94 -1.55 -6.12 -3.5 0.1 -2.46 -2.7 -18.09 4.2 -43 8.73 -8.89 1.45 -0.62 -6.52 -5.36 5.07 -1.29 0.48 -4.2 3.01 2.91 19.14 2.48 9.73 3.57 19.26 3.27 -0.64 11.94 -1.5 37.93 -7.67 14.88 -2.82 8.3 -1.62 0.27 -0.24 2.1 -1.62 2.1 -0.68 z" id="PA" class="state pa"/>
  </g>
  <path d="m 829.68 188.46 -2.32 2.73 0 3.07 -1.94 3.07 -0.16 1.62 1.29 1.29 -0.16 2.42 -2.26 1.13 0.81 2.75 0.16 1.13 2.75 0.32 0.97 2.59 3.56 2.42 2.42 1.62 0 0.81 -2.98 2.7 -1.62 2.26 -1.45 2.75 -2.26 1.29 -0.46 1.6 -0.24 1.21 -0.61 2.61 1.09 2.24 3.23 2.91 4.85 2.26 4.04 0.65 0.16 1.45 -0.81 0.97 0.32 2.75 0.81 0 2.1 -2.42 0.81 -4.85 2.75 -4.04 3.07 -6.47 1.13 -5.5 -0.65 -1.13 -0.16 -9.38 -1.62 -3.39 -1.13 0.81 -2.75 0.32 -0.48 -0.48 1.13 -0.97 2.1 -1.94 0.06 -1.09 -0.38 -3.43 0.57 -2.75 -0.12 -1.97 -2.81 -1.75 -5.09 -1.18 -4.14 -1.38 -3.59 -1.65 z" id="NJ" class="state nj"/>
  <path d="m 825.63 228.28 0.37 -2.15 0.38 -1.69 -1.62 0.4 -1.62 0.47 -2.21 1.76 1.72 5.04 2.26 5.66 2.1 9.7 1.62 6.3 5.01 -0.16 6.14 -1.18 -2.26 -7.39 -0.97 0.48 -3.56 -2.42 -1.78 -4.69 -1.94 -3.56 -3.15 -2.87 -0.86 -2.1 0.37 -1.62 z" id="DE" class="state de"/>
  <path d="m 839.79 252.41 -6.01 1.2 -5.14 0.12 -1.84 -6.92 -1.92 -9.17 -2.57 -6.19 -1.29 -4.4 -7.51 1.62 -14.88 2.82 -37.45 7.55 1.13 5.01 0.97 5.66 0.32 -0.32 2.1 -2.42 2.26 -2.62 2.42 -0.62 1.45 -1.45 1.78 -2.59 1.29 0.65 2.91 -0.32 2.59 -2.1 2.01 -1.45 1.85 -0.48 1.64 1.13 2.91 1.45 1.94 1.78 1.21 1.54 4.12 1.7 0 2.91 5.5 1.29 1.14 0.54 1.41 -2.03 2.88 1.97 -1.28 2.48 -0.77 3.99 -1.78 2.59 0 2.1 0.65 1.78 5.06 1.36 4.31 -0.06 3.07 0.97 2.1 0.32 0.97 -2.1 -1.45 -2.1 0 -1.78 -2.42 -2.1 -2.1 -5.5 1.29 -5.33 -0.16 -2.1 -1.29 -1.29 c 0 0 1.45 -1.62 1.45 -2.26 0 -0.65 0.48 -2.1 0.48 -2.1 l 1.94 -1.29 1.94 -1.62 0.48 0.97 -1.45 1.62 -1.29 3.72 0.32 1.13 1.78 0.32 0.48 5.5 -2.1 0.97 0.32 3.56 0.48 -0.16 1.13 -1.94 1.62 1.78 -1.62 1.29 -0.32 3.39 2.59 3.39 3.88 0.48 1.62 -0.81 3.24 4.18 1.36 0.54 6.65 -2.8 2.01 -4.02 -0.44 -4.91 z m -15.97 9.03 1.13 2.51 0.16 1.78 1.13 1.86 c 0 0 0.89 -0.89 0.89 -1.21 0 -0.32 -0.73 -3.07 -0.73 -3.07 l -0.73 -2.34 -1.86 0.48 z" id="MD" class="state md"/>
  <path d="m 831.64 266.07 -0.14 -1.95 6.45 -2.55 -0.77 3.22 -2.92 3.78 -0.42 4.59 0.46 3.39 -1.83 4.98 -2.16 1.92 -1.47 -4.64 0.45 -5.45 1.59 -4.18 0.77 -3.1 z m 3.34 28.3 -58.17 12.58 -37.43 5.28 -6.68 -0.38 -2.59 1.93 -7.34 0.22 -8.38 0.98 -10.91 1.61 10.47 -5.61 -0.01 -2.07 1.52 -2.15 10.55 -11.5 3.95 4.48 3.78 0.96 2.54 -1.14 2.24 -1.31 2.54 1.34 3.91 -1.43 1.88 -4.56 2.6 0.54 2.86 -2.13 1.8 0.49 2.83 -3.68 0.35 -2.08 -0.96 -1.28 1 -1.87 5.27 -12.28 0.62 -5.74 1.23 -0.52 2.18 2.44 3.94 -0.3 1.93 -7.57 2.79 -0.56 1.05 -2.74 2.58 -2.35 2.77 -5.7 0.08 -5.07 9.82 3.82 c 0.68 0.34 0.83 -5.05 0.83 -5.05 l 3.65 1.6 0.07 2.94 5.78 1.3 2.13 1.18 1.66 2.06 -0.65 3.65 -1.95 2.59 0.11 2.06 0.59 1.85 4.98 1.27 4.45 0.04 3.07 0.96 1.94 0.31 0.71 3.09 3.19 0.4 0.87 1.2 -0.44 4.69 1.37 1.1 -0.48 1.93 1.23 0.79 -0.22 1.38 -2.69 -0.09 0.09 1.62 2.28 1.54 0.12 1.41 1.77 1.79 0.49 2.52 -2.55 1.38 1.57 1.49 5.8 -1.69 3.61 6.01 z" id="VA" class="state va"/>
  <path d="m 761.19 238.97 1.11 4.94 1.08 6.03 2.13 -2.58 2.26 -3.07 2.54 -0.62 1.45 -1.45 1.78 -2.59 1.44 0.65 2.91 -0.32 2.59 -2.1 2.01 -1.45 1.85 -0.48 1.3 1.02 3.64 1.82 1.94 1.78 1.37 1.29 -0.76 5.55 -5.83 -2.54 -4.25 -1.62 -0.1 5.18 -2.75 5.54 -2.53 2.43 -1.19 2.75 -2.64 0.5 -0.9 3.6 -1.04 3.95 -3.97 0.34 -2.32 -2.44 -1.07 0.56 -0.63 5.47 -1.35 3.53 -4.96 10.95 0.9 1.16 -0.21 1.91 -2.81 3.88 -1.81 -0.54 -2.97 2.16 -2.54 -0.57 -2 4.56 c 0 0 -3.26 1.43 -3.92 1.37 -0.16 -0.02 -2.47 -1.25 -2.47 -1.25 l -2.34 1.38 -2.41 1.04 -3.74 -0.89 -1.12 -1.17 -2.19 -3.02 -3.14 -1.99 -1.71 -3.62 -4.28 -3.47 -0.65 -2.26 -2.59 -1.45 -0.81 -1.62 -0.24 -5.25 2.18 -0.08 1.94 -0.81 0.16 -2.75 1.62 -1.45 0.16 -5.01 0.97 -3.88 1.29 -0.65 1.29 1.13 0.48 1.78 1.78 -0.97 0.48 -1.62 -1.13 -1.78 0 -2.42 0.97 -1.29 2.26 -3.39 1.29 -1.45 2.1 0.48 2.26 -1.62 3.07 -3.39 2.26 -3.88 0.32 -5.66 0.48 -5.01 0 -4.69 -1.13 -3.07 0.97 -1.45 1.28 -1.29 3.49 19.83 4.63 -0.75 12.43 -1.8 z" id="WV" class="state wv"/>
  <path d="m 735.32 193.33 -6.09 4.05 -3.88 2.26 -3.39 3.72 -4.04 3.88 -3.23 0.81 -2.91 0.48 -5.5 2.59 -2.1 0.16 -3.39 -3.07 -5.17 0.65 -2.59 -1.45 -2.38 -1.35 -4.89 0.7 -10.18 1.62 -11.21 2.18 1.29 14.63 1.78 13.74 2.59 23.44 0.57 4.83 4.12 -0.13 2.42 -0.81 3.36 1.5 2.07 4.36 5.14 -0.02 1.89 2.12 1.76 -0.07 2.54 -1.34 2.5 0.37 5.42 0.48 1.73 -2.13 2.35 -1.29 2.07 -0.68 0.65 2.75 1.78 0.97 3.48 2.34 2.18 -0.08 1.33 -0.49 0.18 -2.76 1.59 -1.45 0.1 -4.79 c 0 0 1.02 -4.11 1.02 -4.11 l 1.3 -0.6 1.32 1.15 0.54 1.7 1.72 -1.04 0.44 -1.46 -1.12 -1.9 0.07 -2.31 0.75 -1.07 2.15 -3.31 1.05 -1.54 2.1 0.48 2.26 -1.62 3.07 -3.39 2.77 -4.08 0.32 -5.06 0.48 -5.01 -0.18 -5.31 -0.95 -2.89 0.35 -1.19 1.8 -1.75 -2.29 -9.05 -2.91 -19.36 z" id="OH" class="state oh"/>
  <path d="m 619.57 299.97 0.07 -2.86 0.48 -4.53 2.26 -2.91 1.78 -3.88 2.59 -4.2 -0.48 -5.82 -1.78 -2.75 -0.32 -3.23 0.81 -5.5 -0.48 -6.95 -1.29 -16 -1.29 -15.36 -0.97 -11.72 3.07 0.89 1.45 0.97 1.13 -0.32 2.1 -1.94 2.83 -1.62 5.09 -0.16 21.99 -2.26 5.58 -0.53 1.5 15.96 4.25 36.84 0.6 5.77 -0.37 2.26 1.23 1.8 0.1 1.37 -2.52 1.6 -3.54 1.55 -3.2 0.55 -0.6 4.87 -4.57 3.31 -2.8 4.01 0.32 2.38 -0.58 1.53 -3.33 0 -1.59 -1.62 -2.49 1.26 -2.68 1.5 0.16 3.05 -1.19 0.26 -0.47 -1.02 -2.17 -1.5 -3.25 1.34 -1.55 3.01 -1.44 -0.81 -1.45 -1.6 -4.46 0.48 -5.59 0.97 -2.91 1.55 z" id="IN" class="state in"/>
  <path d="m 619.54 300.34 0.03 -3.23 0.57 -4.65 2.33 -2.92 1.87 -4.08 2.23 -4 -0.37 -5.25 -2.01 -3.54 -0.1 -3.35 0.69 -5.27 -0.83 -7.18 -1.07 -15.78 -1.29 -15.02 -0.92 -11.64 -0.27 -0.92 -0.81 -2.59 -1.29 -3.72 -1.62 -1.78 -1.45 -2.59 -0.23 -5.49 -45.8 2.6 0.23 2.37 2.29 0.69 0.91 1.14 0.46 1.83 3.89 3.43 0.69 2.29 -0.69 3.43 -1.83 3.66 -0.69 2.51 -2.29 1.83 -1.83 0.69 -5.26 1.37 -0.69 1.83 -0.69 2.06 0.69 1.37 1.83 1.6 -0.23 4.12 -1.83 1.6 -0.69 1.6 0 2.74 -1.83 0.46 -1.6 1.14 -0.23 1.37 0.23 2.06 -1.71 1.31 -1.03 2.8 0.46 3.66 2.29 7.32 7.32 7.54 5.49 3.66 -0.23 4.34 0.91 1.37 6.4 0.46 2.74 1.37 -0.69 3.66 -2.29 5.94 -0.69 3.2 2.29 3.89 6.4 5.26 4.57 0.69 2.06 5.03 2.06 3.2 -0.91 2.97 1.6 4.12 1.83 2.06 1.41 -0.88 0.91 -2.07 2.21 -1.75 2.13 -0.61 2.6 1.18 3.63 1.38 1.19 -0.3 0.2 -2.26 -1.29 -2.41 0.3 -2.38 1.84 -1.35 3.02 -0.81 1.26 -0.46 -0.61 -1.39 -0.79 -2.35 1.43 -0.98 1.16 -3.21 z" id="IL" class="state il"/>
  <path d="m 874.07 178.86 -3.68 -14.88 -4.72 0.92 -21.23 4.74 1 3.23 1.45 7.27 0.18 8.97 -1.22 2.17 1.92 1.93 4.27 -3.91 3.56 -3.23 1.94 -2.1 0.81 0.65 2.75 -1.45 5.17 -1.13 7.79 -3.18 z" id="CT" class="state ct"/>
  <path d="m 615.07 197.37 -0.07 -3.16 -1.18 -4.53 -0.65 -6.14 -1.13 -2.42 0.97 -3.07 0.81 -2.91 1.45 -2.59 -0.65 -3.39 -0.65 -3.56 0.48 -1.78 1.94 -2.42 0.16 -2.75 -0.81 -1.29 0.65 -2.59 -0.45 -4.17 2.75 -5.66 2.91 -6.79 0.16 -2.26 -0.32 -0.97 -0.81 0.48 -4.2 6.3 -2.75 4.04 -1.94 1.78 -0.81 2.26 -1.95 0.81 -1.13 1.94 -1.45 -0.32 -0.16 -1.78 1.29 -2.42 2.1 -4.69 1.78 -1.62 0.99 -2.36 -2.56 -1.9 -1.97 -10.37 -3.55 -1.34 -1.95 -2.31 -12.13 -2.72 -2.88 -1.01 -8.21 -2.17 -7.92 -1.16 -3.77 -5.13 -0.75 0.55 -1.2 -0.16 -0.65 -1.13 -1.33 0.3 -1.13 0.16 -1.78 0.97 -0.97 -0.65 0.65 -1.94 1.94 -3.07 1.13 -1.13 -1.94 -1.45 -2.1 0.81 -2.91 1.94 -7.44 3.23 -2.91 0.65 -2.91 -0.48 -0.98 -0.88 -2.12 2.84 -0.23 2.74 0 8.46 -1.14 1.6 -5.26 3.89 -2.29 5.94 0.46 0.23 2.51 2.06 0.69 3.2 -1.83 3.2 0 3.89 0.46 6.63 2.97 2.97 3.43 0 1.83 3.2 3.43 0.46 3.89 5.72 7.09 4.12 2.06 2.74 0.91 7.43 0.69 3.32 2.29 1.6 0.23 1.37 -2.06 3.43 0.23 3.2 2.51 3.89 2.51 1.14 2.97 0.46 1.34 1.38 45.3 -2.67 z" id="WI" class="state wi"/>
  <path d="m 834.98 294.32 2.08 4.92 3.56 6.47 2.42 2.42 0.65 2.26 -2.42 0.16 0.81 0.65 -0.32 4.2 -2.59 1.29 -0.65 2.1 -1.29 2.91 -3.72 1.62 -2.42 -0.32 -1.45 -0.16 -1.62 -1.29 0.32 1.29 0 0.97 1.94 0 0.81 1.29 -1.94 6.3 4.2 0 0.65 1.62 2.26 -2.26 1.29 -0.48 -1.94 3.56 -3.07 4.85 -1.29 0 -1.13 -0.48 -2.75 0.65 -5.17 2.42 -6.47 5.33 -3.39 4.69 -1.94 6.47 -0.48 2.42 -4.69 0.48 -5.45 1.34 -9.95 -8.2 -12.61 -7.6 -2.91 -0.81 -12.61 1.45 -4.28 0.75 -1.62 -3.23 -2.97 -2.12 -16.49 0.48 -7.27 0.81 -9.05 4.53 -6.14 2.59 -21.18 2.59 0.5 -4.05 1.78 -1.45 2.75 -0.65 0.65 -3.72 4.2 -2.75 3.88 -1.45 4.2 -3.56 4.36 -2.1 0.65 -3.07 3.88 -3.88 0.65 -0.16 c 0 0 0 1.13 0.81 1.13 0.81 0 1.94 0.32 1.94 0.32 l 2.26 -3.56 2.1 -0.65 2.26 0.32 1.62 -3.56 2.91 -2.59 0.48 -2.1 0.19 -3.65 4.28 -0.02 7.2 -0.86 15.76 -2.25 15.14 -2.09 21.64 -4.72 19.98 -4.26 11.18 -2.41 5.05 -1.16 z m 4.27 33.21 2.59 -2.51 3.15 -2.59 1.54 -0.65 0.16 -2.02 -0.65 -6.14 -1.45 -2.34 -0.65 -1.86 0.73 -0.24 2.75 5.5 0.4 4.45 -0.16 3.39 -3.39 1.54 -2.83 2.42 -1.13 1.21 -1.05 -0.16 z" id="NC" class="state nc"/>
  <g id="dc">
    <title id="title3555">Washington, D.C.</title>
    <path class="state dc" d="m 805.82 250.84 -1.86 -1.82 -1.23 -0.69 1.44 -2.02 2.89 1.95 -1.24 2.58 z" id="DC"/>
    <circle class="circle dc" cx="805.82" cy="250.84" id="circle3558" r="6"/>
  </g>
  <path d="m 899.62 173.25 2.17 -0.69 0.46 -1.71 1.03 0.11 1.03 2.29 -1.26 0.46 -3.89 0.11 0.46 -0.57 z m -9.37 0.8 2.29 -2.63 1.6 0 1.83 1.49 -2.4 1.03 -2.17 1.03 -1.14 -0.91 z m -34.8 -21.99 17.65 -4.64 2.26 -0.65 1.91 -2.8 3.74 -1.66 2.89 4.41 -2.42 5.17 -0.32 1.45 1.94 2.59 1.13 -0.81 1.78 0 2.26 2.59 3.88 5.98 3.56 0.48 2.26 -0.97 1.78 -1.78 -0.81 -2.75 -2.1 -1.62 -1.45 0.81 -0.97 -1.29 0.48 -0.48 2.1 -0.16 1.78 0.81 1.94 2.42 0.97 2.91 0.32 2.42 -4.2 1.45 -3.88 1.94 -3.88 4.53 -1.94 1.45 0 -0.97 2.42 -1.45 0.48 -1.78 -0.81 -3.07 -2.91 1.45 -0.81 1.45 0.48 2.26 -2.07 1 -2.75 -4.53 -3.39 -4.36 -2.07 -1.81 -6.53 1.88 -5.09 1.05 -20.68 4.59 -0.67 -4.77 0.65 -10.59 4.29 -0.89 6.79 -1.29 z" id="MA" class="state ma"/>
  <path d="m 696.68 318.25 -51.89 5.01 -15.76 1.78 -4.62 0.51 -3.87 -0.03 -0.22 4.1 -8.19 0.26 -6.95 0.65 -8.09 -0.12 -1.41 7.07 -1.7 5.48 -3.29 2.75 -1.35 4.38 -0.32 2.59 -4.04 2.26 1.45 3.56 -0.97 4.36 -0.97 0.79 108.16 -10.41 0.4 -3.95 1.81 -1.49 2.83 -0.75 0.67 -3.72 4.1 -2.7 4.05 -1.49 4.08 -3.57 4.44 -2.03 0.52 -3.07 4.06 -3.98 0.55 -0.11 c 0 0 0.03 1.13 0.84 1.13 0.81 0 1.94 0.35 1.94 0.35 l 2.26 -3.59 2.07 -0.65 2.28 0.3 1.6 -3.53 2.96 -2.64 0.42 -1.94 0.31 -3.71 -2.15 -0.2 -2.6 2.03 -6.99 0.03 -18.36 2.39 -8.06 1.91 z" id="TN" class="state tn"/>
  <path d="m 593.82 343.05 -3.98 0.72 -5.11 -0.63 0.42 -1.6 2.98 -2.57 0.94 -3.66 -1.83 -2.97 -78.42 2.51 1.6 6.86 -0 8.23 1.37 10.97 0.23 37.84 2.29 1.94 2.97 -1.37 2.74 1.14 0.68 6.57 55.62 -1.14 1.15 -2.09 -0.29 -3.55 -1.83 -2.97 1.6 -1.49 -1.6 -2.51 0.68 -2.51 1.37 -5.61 2.52 -2.06 -0.69 -2.28 3.66 -5.37 2.74 -1.37 -0.11 -1.49 -0.35 -1.83 2.86 -5.6 2.4 -1.26 0.38 -3.43 1.77 -1.24 -3.14 -0.48 -1.34 -4.01 2.8 -2.38 0.55 -2.02 1.28 -4.05 1.07 -3.26 z" id="AR" class="state ar" style="fill:#22aad2"/>
  <path d="m 558.44 248.11 -2.52 -3.09 -1.14 -2.29 -64.36 2.4 -2.29 0.11 1.26 2.51 -0.23 2.29 2.51 3.89 3.09 4.12 3.09 2.74 2.16 0.23 1.5 0.91 0 2.97 -1.83 1.6 -0.46 2.29 2.06 3.43 2.51 2.97 2.51 1.83 1.37 11.66 0.31 36.07 0.23 4.69 0.46 5.38 22.43 -0.87 23.21 -0.69 20.8 -0.8 11.65 -0.23 2.17 3.43 -0.68 3.31 -3.09 2.4 -0.57 1.84 5.38 0.46 3.89 -0.69 1.72 -5.49 0.65 -5.86 2.1 -2.56 2.6 -1.49 0.05 -3.05 1.02 -1.94 -1.69 -2.54 -1.33 0.98 -1.99 -2.23 -1.29 -4.76 0.8 -2.52 -1.94 -3.43 -1.83 -4.58 -4.8 -0.8 -6.97 -5.6 -1.72 -4.11 0.8 -3.2 2.06 -6.06 0.46 -2.86 -1.95 -1.03 -6.86 -0.8 -1.03 -1.71 -0.11 -4.23 -5.49 -3.43 -6.98 -7.77 -2.29 -7.32 -0.23 -4.23 0.8 -2.29 z" id="MO" class="state mo"/>
  <path d="m 672.29 355.55 0 2.18 0.16 2.1 0.65 3.39 3.39 7.92 2.42 9.86 1.45 6.14 1.62 4.85 1.45 6.95 2.1 6.3 2.59 3.39 0.48 3.39 1.94 0.81 0.16 2.1 -1.78 4.85 -0.48 3.23 -0.16 1.94 1.62 4.36 0.32 5.33 -0.81 2.42 0.65 0.81 1.45 0.81 0.2 3.22 2.23 3.35 2.25 2.16 7.92 0.16 10.82 -0.65 21.51 -1.29 5.45 -0.67 4.58 0.03 0.16 2.91 2.59 0.81 0.32 -4.36 -1.62 -4.53 1.13 -1.62 5.82 0.81 4.98 0.32 -0.78 -6.3 2.26 -10.02 1.45 -4.2 -0.48 -2.59 3.33 -6.24 -0.51 -1.35 -1.91 0.7 -2.59 -1.29 -0.65 -2.1 -1.29 -3.56 -2.26 -2.1 -2.59 -0.65 -1.62 -4.85 -2.93 -6.33 -4.2 -1.94 -2.1 -1.94 -1.29 -2.59 -2.1 -1.94 -2.26 -1.29 -2.26 -2.91 -3.07 -2.26 -4.53 -1.78 -0.48 -1.45 -2.42 -2.91 -0.48 -1.45 -3.39 -4.97 -3.52 0.1 -3.75 -2.36 -1.42 -1.29 -0.32 -1.78 0.87 -1.94 2.23 -1.11 -0.63 -2.1 -41.87 4.99 z" id="GA" class="state ga"/>
  <path d="m 764.94 408.16 -1.78 0.97 -2.59 -1.29 -0.65 -2.1 -1.29 -3.56 -2.26 -2.1 -2.59 -0.65 -1.62 -4.85 -2.75 -5.98 -4.2 -1.94 -2.1 -1.94 -1.29 -2.59 -2.1 -1.94 -2.26 -1.29 -2.26 -2.91 -3.07 -2.26 -4.53 -1.78 -0.48 -1.45 -2.42 -2.91 -0.48 -1.45 -3.39 -5.17 -3.39 0.16 -4.04 -2.42 -1.29 -1.29 -0.32 -1.78 0.81 -1.94 2.26 -0.97 -0.51 -2.29 5.77 -2.34 9.12 -4.59 7.77 -0.81 16.11 -0.42 2.64 1.88 1.68 3.36 4.3 -0.61 12.61 -1.45 2.91 0.81 12.61 7.6 10.11 8.12 -5.42 5.46 -2.59 6.14 -0.48 6.3 -1.62 0.81 -1.13 2.75 -2.42 0.65 -2.1 3.56 -2.75 2.75 -2.26 3.39 -1.62 0.81 -3.56 3.39 -2.91 0.16 0.97 3.23 -5.01 5.5 -2.1 1.29 z" id="SC" class="state sc"/>
  <path d="m 725.99 295.27 -2.29 2.4 -3.58 3.99 -4.92 5.46 -1.22 1.72 -0.06 2.1 -4.38 2.16 -5.66 3.39 -7.23 1.8 -51.87 4.9 -15.76 1.78 -4.62 0.51 -3.87 -0.03 -0.23 4.22 -8.18 0.14 -6.95 0.65 -7.99 -0.06 1.21 -1.32 2.5 -1.54 0.23 -3.2 0.91 -1.83 -1.61 -2.54 0.8 -1.91 2.26 -1.78 2.1 -0.65 2.75 1.29 3.56 1.29 1.13 -0.32 0.16 -2.26 -1.29 -2.42 0.32 -2.26 1.94 -1.45 2.59 -0.65 1.62 -0.65 -0.81 -1.78 -0.65 -1.94 1.51 -1 c 0 -0.04 1.25 -3.52 1.24 -3.66 l 3.05 -1.48 5.32 -0.97 4.49 -0.48 1.39 1.63 1.53 0.87 1.59 -3.11 3.19 -1.28 2.21 1.48 0.41 1 1.17 -0.26 -0.16 -2.95 3.13 -1.75 2.15 -1.07 1.53 1.66 3.32 -0.04 0.59 -1.57 -0.37 -2.26 2.6 -4 4.78 -3.44 0.71 -4.84 2.93 -0.46 3.79 -1.65 2.44 -1.71 -0.2 -1.56 -1.14 -1.45 0.57 -2.99 4.18 -0.12 2.3 -0.75 3.35 1.43 2.05 4.36 5.13 0.01 2.05 2.21 1.62 -0.15 2.6 -1.28 5.24 0.57 2.57 0.22 1.69 -2.06 2.62 -1.43 1.88 -0.71 0.65 2.84 2.04 1.06 2.64 2.08 0.12 5.67 0.81 1.57 2.59 1.56 0.77 2.29 4.16 3.44 1.81 3.62 2.46 1.66 z" id="KY" class="state ky"/>
  <path d="m 631.31 460.42 -1.49 -14.32 -2.75 -18.75 0.16 -14.06 0.81 -31.04 -0.16 -16.65 0.17 -6.42 44.48 -3.62 -0.15 2.18 0.16 2.1 0.65 3.39 3.39 7.92 2.42 9.86 1.45 6.14 1.62 4.85 1.45 6.95 2.1 6.3 2.59 3.39 0.48 3.39 1.94 0.81 0.16 2.1 -1.78 4.85 -0.48 3.23 -0.16 1.94 1.62 4.36 0.32 5.33 -0.81 2.42 0.65 0.81 1.45 0.81 0.33 2.89 -5.6 -0.35 -6.79 0.65 -25.54 2.91 -10.41 1.41 -0.22 2.88 1.78 1.78 2.59 1.94 0.58 7.94 -5.54 2.57 -2.75 -0.32 2.75 -1.94 0 -0.97 -3.07 -5.98 -2.26 -0.65 -1.45 4.36 -1.29 2.75 -0.65 -0.16 -2.75 0 z" id="AL" class="state al"/>
  <path d="m 607.97 459.16 -3.28 -3.17 1.01 -5.5 -0.66 -0.89 -9.26 1.01 -25.03 0.46 -0.68 -2.39 0.91 -8.46 3.32 -5.95 5.03 -8.69 -0.57 -2.4 1.26 -0.68 0.46 -1.95 -2.29 -2.06 -0.11 -1.94 -1.83 -4.35 -0.15 -6.34 -55.47 0.92 0.03 9.57 0.69 9.37 0.69 3.89 2.51 4.12 0.91 5.03 4.34 5.49 0.23 3.2 0.69 0.69 -0.69 8.46 -2.97 5.03 1.6 2.06 -0.69 2.51 -0.69 7.32 -1.37 3.2 0.12 3.62 4.69 -1.52 12.11 0.21 10.35 3.56 6.47 1.13 3.72 -1.45 3.23 1.13 3.23 0.97 0.81 -2.1 -3.23 -1.13 -2.59 0.48 -2.75 -1.62 c 0 0 0.16 -1.29 0.81 -1.45 0.65 -0.16 3.07 -0.97 3.07 -0.97 l 1.78 1.45 1.78 -0.97 3.23 0.65 1.45 2.42 0.32 2.26 4.53 0.32 1.78 1.78 -0.81 1.62 -1.29 0.81 1.62 1.62 8.41 3.56 3.56 -1.29 0.97 -2.42 2.59 -0.65 1.78 -1.45 1.29 0.97 0.81 2.91 -2.26 0.81 0.65 0.65 3.39 -1.29 2.26 -3.39 0.81 -0.48 -2.1 -0.32 0.81 -1.62 -0.16 -1.45 2.1 -0.48 1.13 -1.29 0.65 0.81 c 0 0 -0.16 3.07 0.65 3.07 0.81 0 4.2 0.65 4.2 0.65 l 4.04 1.94 0.97 1.45 2.91 0 1.13 0.97 2.26 -3.07 0 -1.45 -1.29 0 -3.39 -2.75 -5.82 -0.81 -3.23 -2.26 1.13 -2.75 2.26 0.32 0.16 -0.65 -1.78 -0.97 0 -0.48 3.23 0 1.78 -3.07 -1.29 -1.94 -0.32 -2.75 -1.45 0.16 -1.94 2.1 -0.65 2.59 -3.07 -0.65 -0.97 -1.78 1.78 -1.94 1.9 -3.45 -1.06 -2.41 -1.17 -3.98 z" id="LA" class="state la" style="fill:#22aad2"/>
  <path d="m 631.56 459.34 -0.25 1.26 -5.17 0 -1.45 -0.81 -2.1 -0.32 -6.79 1.94 -1.78 -0.81 -2.59 4.2 -1.1 0.78 -1.12 -2.49 -1.14 -3.89 -3.43 -3.2 1.14 -5.54 -0.69 -0.91 -1.83 0.23 -7.92 0.87 -24.55 0.37 -0.77 -2.23 0.87 -8.38 3.12 -5.67 5.23 -9.14 -0.45 -2.43 1.24 -0.66 0.44 -1.92 -2.32 -2.08 -0.12 -2.14 -1.84 -4.12 -0.11 -5.96 1.33 -2.48 -0.22 -3.42 -1.77 -3.08 1.53 -1.48 -1.57 -2.5 0.46 -1.65 1.58 -6.53 2.49 -2.04 -0.64 -2.37 3.66 -5.3 2.83 -1.36 -0.22 -1.68 -0.29 -1.68 2.88 -5.57 2.35 -1.23 0.15 -0.89 37.34 -3.88 0.18 6.28 0.16 16.65 -0.81 31.04 -0.16 14.06 2.75 18.75 1.48 13.4 z" id="MS" class="state ms" style="fill:#22aad2"/>
  <path d="m 569.19 199.58 0.26 2.79 2.22 0.58 0.95 1.23 0.5 1.86 3.79 3.36 0.69 2.39 -0.67 3.42 -1.58 3.23 -0.8 2.74 -2.17 1.6 -1.72 0.57 -5.58 1.86 -1.39 3.85 0.73 1.37 1.84 1.68 -0.28 4.04 -1.76 1.54 -0.77 1.64 0.13 2.78 -1.89 0.46 -1.63 1.1 -0.28 1.35 0.28 2.11 -1.55 1.12 -2.47 -3.13 -1.26 -2.45 -65.74 2.51 -0.92 0.17 -2.05 -4.52 -0.23 -6.63 -1.6 -4.12 -0.69 -5.26 -2.29 -3.66 -0.91 -4.8 -2.74 -7.54 -1.14 -5.37 -1.37 -2.17 -1.6 -2.74 1.95 -4.84 1.37 -5.72 -2.74 -2.06 -0.46 -2.74 0.91 -2.51 1.71 0 82.65 -1.27 0.83 4.18 2.25 1.56 0.26 1.42 -2.03 3.39 0.19 3.21 2.51 3.8 2.53 1.29 3.08 0.5 0.66 0.83 z" id="IA" class="state ia"/>
  <path d="m 475.24 128.82 -0.46 -8.46 -1.83 -7.32 -1.83 -13.49 -0.46 -9.83 -1.83 -3.43 -1.6 -5.03 0 -10.29 0.69 -3.89 -1.82 -5.45 30.13 0.04 0.32 -8.24 0.65 -0.16 2.26 0.48 1.94 0.81 0.81 5.5 1.45 6.14 1.62 1.62 4.85 0 0.32 1.45 6.3 0.32 0 2.1 4.85 0 0.32 -1.29 1.13 -1.13 2.26 -0.65 1.29 0.97 2.91 0 3.88 2.59 5.33 2.42 2.42 0.48 0.48 -0.97 1.45 -0.48 0.48 2.91 2.59 1.29 0.48 -0.48 1.29 0.16 0 2.1 2.59 0.97 3.07 0 1.62 -0.81 3.23 -3.23 2.59 -0.48 0.81 1.78 0.48 1.29 0.97 0 0.97 -0.81 8.89 -0.32 1.78 3.07 0.65 0 0.71 -1.08 4.44 -0.37 -0.61 2.28 -3.94 1.84 -9.25 4.06 -4.77 2.01 -3.07 2.59 -2.42 3.56 -2.26 3.88 -1.78 0.81 -4.53 5.01 -1.29 0.16 -4.33 2.76 -2.46 3.21 -0.23 3.19 0.09 8.04 -1.38 1.69 -5.08 3.76 -2.23 5.98 2.87 2.23 0.68 3.23 -1.86 3.24 0.17 3.75 0.37 6.73 3.03 3 3.33 0 1.89 3.13 3.38 0.5 3.86 5.67 7.09 4.12 2.14 2.88 0.67 6.44 -81.21 1.14 -0.34 -35.68 -0.46 -2.97 -4.12 -3.43 -1.14 -1.83 0 -1.6 2.06 -1.6 1.37 -1.37 0.23 -3.2 z" id="MN" class="state mn"/>
  <path d="m 380.34 320.82 -16.68 -1.27 -0.88 10.95 20.47 1.16 32.06 1.3 -2.33 24.42 -0.46 17.83 0.23 1.6 4.34 3.66 2.06 1.14 0.69 -0.23 0.69 -2.06 1.37 1.83 2.06 0 0 -1.37 2.74 1.37 -0.46 3.89 4.12 0.23 2.51 1.14 4.12 0.69 2.51 1.83 2.29 -2.06 3.43 0.69 2.51 3.43 0.91 0 0 2.29 2.29 0.69 2.29 -2.29 1.83 0.69 2.51 0 0.91 2.51 6.3 2.08 1.37 -0.69 1.83 -4.12 1.14 0 1.14 2.06 4.12 0.69 3.66 1.37 2.97 0.91 1.83 -0.91 0.69 -2.51 4.34 0 2.06 0.91 2.74 -2.06 1.14 0 0.69 1.6 4.12 0 1.6 -2.06 1.83 0.46 2.06 2.51 3.2 1.83 3.2 0.91 1.94 1.12 -0.39 -37.22 -1.37 -10.97 -0.16 -8.87 -1.44 -6.54 -0.78 -7.18 -0.07 -3.82 -12.14 0.32 -46.41 -0.46 -45.04 -2.06 -24.29 -1.37 z" id="OK" class="state ok" style="fill:#22aad2"/>
  <path d="m 361.46 330.57 22.69 1.09 31.09 1.14 -2.33 23.46 -0.3 18.15 0.07 2.08 4.34 3.82 1.99 1.45 1.18 -0.56 0.37 -1.82 1.14 1.8 2.11 0.04 -0 -1.45 1.67 0.97 1.14 0.41 -0.36 3.97 4.09 0.09 2.93 1.2 3.95 0.53 2.38 2.08 2.12 -2.08 3.72 0.61 2.22 3.22 1.07 0.32 -0.16 1.97 2.21 0.79 2.33 -2.05 2.13 0.61 2.23 0.04 0.93 2.44 6.33 2.11 1.59 -0.77 1.49 -4.18 0.34 0 0.91 0.08 1.23 2.07 3.93 0.67 3.34 1.12 3.43 1.2 1.84 -0.97 0.71 -2.51 4.45 0.04 1.81 0.93 2.8 -2.11 1.1 0.04 0.85 1.61 4.05 0 1.52 -2.03 1.87 0.41 1.95 2.4 3.52 2.04 2.86 0.81 1.51 0.8 2.45 2 3.04 -1.33 2.69 1.14 0.56 6.11 -0.04 9.7 0.69 9.53 0.7 3.61 2.68 4.42 0.9 4.95 4.22 5.54 0.2 3.14 0.75 0.79 -0.73 8.38 -2.87 5.01 1.53 2.15 -0.63 2.34 -0.67 7.4 -1.5 3.34 0.29 3.5 -5.66 1.59 -9.86 4.53 -0.97 1.94 -2.59 1.94 -2.1 1.45 -1.29 0.81 -5.66 5.33 -2.75 2.1 -5.33 3.23 -5.66 2.42 -6.3 3.39 -1.78 1.45 -5.82 3.56 -3.39 0.65 -3.88 5.5 -4.04 0.32 -0.97 1.94 2.26 1.94 -1.45 5.5 -1.29 4.53 -1.13 3.88 -0.81 4.53 0.81 2.42 1.78 6.95 0.97 6.14 1.78 2.75 -0.97 1.45 -3.07 1.94 -5.66 -3.88 -5.5 -1.13 -1.29 0.48 -3.23 -0.65 -4.2 -3.07 -5.17 -1.13 -7.6 -3.39 -2.1 -3.88 -1.29 -6.47 -3.23 -1.94 -0.65 -2.26 0.65 -0.65 0.32 -3.39 -1.29 -0.65 -0.65 -0.97 1.29 -4.36 -1.62 -2.26 -3.23 -1.29 -3.39 -4.36 -3.56 -6.63 -4.2 -2.59 0.16 -1.94 -5.33 -12.29 -0.81 -4.2 -1.78 -1.94 -0.16 -1.45 -5.98 -5.33 -2.59 -3.07 0 -1.13 -2.59 -2.1 -6.79 -1.13 -7.44 -0.65 -3.07 -2.26 -4.53 1.78 -3.56 1.45 -2.26 3.23 -0.97 3.72 -4.36 6.14 -2.42 2.42 -2.59 -0.97 -1.78 -1.13 -1.94 -0.65 -3.88 -2.26 0 -0.65 -1.78 -1.94 -5.17 -2.1 -7.44 -7.76 -2.26 -4.69 0 -8.08 -3.23 -6.47 -0.48 -2.75 -1.62 -0.97 -1.13 -2.1 -5.01 -2.1 -1.29 -1.62 -7.11 -7.92 -1.29 -3.23 -4.69 -2.26 -1.45 -4.36 -2.59 -2.91 -1.94 -0.48 -0.65 -4.68 8 0.69 29.03 2.74 29.04 1.6 2.23 -19.46 3.89 -55.56 1.6 -18.75 1.37 0.03 m 99.03 229.66 -0.57 -7.11 -2.75 -7.19 -0.57 -7.03 1.54 -8.24 3.31 -6.87 3.48 -5.42 3.15 -3.56 0.65 0.24 -4.77 6.63 -4.36 6.55 -2.02 6.63 -0.32 5.17 0.89 6.14 2.59 7.19 0.48 5.17 0.16 1.45 -0.89 0.24 z" id="TX" class="state tx" style="fill:#4a506d"/>
  <path d="m 288.15 424.01 -0.78 -4.75 8.64 0.53 30.17 2.95 27.27 1.69 2.22 -18.71 3.86 -55.88 1.74 -19.39 1.57 0.13 0.83 -11.16 -104 -10.64 -17.5 120.43 15.46 1.99 1.29 -10.02 29.23 2.83 z" id="NM" class="state nm" style="fill:#22aad2"/>
  <path d="m 507.88 324.38 -12.62 0.2 -46.09 -0.46 -44.56 -2.06 -24.63 -1.26 3.89 -64.59 22.08 0.68 40.29 0.84 44.3 0.99 5.1 0 2.18 2.16 2.02 -0.02 1.64 1.01 -0.06 3.01 -1.83 1.73 -0.33 2.23 1.84 3.4 2.95 3.2 2.33 1.61 1.3 11.24 0.19 36.09 z" id="KS" class="state ks" style="fill:#22aad2"/>
  <path d="m 486.1 240.7 3.23 7.02 -0.13 2.3 3.46 5.49 2.72 3.15 -5.05 0 -43.48 -0.94 -40.79 -0.89 -22.25 -0.78 1.07 -21.33 -32.32 -2.92 4.34 -44.01 15.55 1.03 20.12 1.14 17.83 1.14 23.78 1.14 10.75 -0.46 2.06 2.29 4.8 2.97 1.14 0.91 4.34 -1.37 3.89 -0.46 2.74 -0.23 1.83 1.37 4.06 1.6 2.97 1.6 0.46 1.6 0.91 2.06 1.83 0 0.8 0.05 0.89 4.68 2.92 8.47 0.57 3.76 2.52 3.77 0.57 5.11 1.61 4.24 0.25 6.47 z" id="NE" class="state ne"/>
  <path d="m 476.45 204.02 -0.05 -0.58 -2.9 -4.85 1.86 -4.71 1.49 -5.89 -2.78 -2.08 -0.39 -2.74 0.79 -2.55 3.19 0.02 -0.12 -5.01 -0.33 -30.17 -0.62 -3.77 -4.07 -3.33 -0.98 -1.68 -0.06 -1.61 2.02 -1.53 1.53 -1.67 0.24 -2.66 -58.26 -1.6 -54.8 -3.45 -5.33 63.69 14.59 0.9 19.95 1.21 17.74 0.93 23.78 1.3 11.98 -0.42 1.97 2.25 5.19 3.25 0.76 0.72 4.54 -1.45 6.54 -0.61 1.68 1.34 4.2 1.6 2.95 1.64 0.4 1.48 1.04 2.24 2.24 -0.2 z" id="SD" class="state sd"/>
  <path d="m 475.31 128.92 -0.61 -8.43 -1.68 -6.82 -1.89 -13.02 -0.46 -10.99 -1.74 -3.08 -1.76 -5.19 0.03 -10.44 0.62 -3.82 -1.83 -5.47 -28.64 -0.56 -18.59 -0.65 -26.51 -1.29 -22.95 -2.13 -6.99 67.18 54.93 3.34 58.07 1.39 z" id="ND" class="state nd"/>
  <path d="m 360.38 143.28 -106.74 -13.46 -14.08 88.46 113.26 13.59 7.56 -88.59 z" id="WY" class="state wy"/>
  <path d="M 369.21 56.97 338.54 54.16 l -29.26 -3.56 -29.26 -4.04 -32.33 -5.33 -18.43 -3.39 -32.72 -6.93 -4.48 21.35 3.43 7.54 -1.37 4.57 1.83 4.57 3.2 1.37 4.62 10.77 2.7 3.18 0.46 1.14 3.43 1.14 0.46 2.06 -7.09 17.6 0 2.51 2.51 3.2 0.91 0 4.8 -2.97 0.69 -1.14 1.6 0.69 -0.23 5.26 2.74 12.57 2.97 2.51 0.91 0.69 1.83 2.29 -0.46 3.43 0.69 3.43 1.14 0.91 2.29 -2.29 2.74 0 3.2 1.6 2.51 -0.91 4.12 0 3.66 1.6 2.74 -0.46 0.46 -2.97 2.97 -0.69 1.37 1.37 0.46 3.2 1.43 0.83 1.89 -11.03 106.75 13.43 8.8 -86.3 z" id="MT" class="state mt"/>
  <path d="m 380.03 320.96 4.9 -86.32 -113.39 -12.64 -12.21 87.94 120.7 11.03 z" id="CO" class="state co" style="fill:#22aad2"/>
  <path d="m 148.48 176.48 8.77 -35.22 1.37 -4.23 2.51 -5.94 -1.26 -2.29 -2.51 0.11 -0.8 -1.03 0.46 -1.14 0.34 -3.09 4.46 -5.49 1.83 -0.46 1.14 -1.14 0.57 -3.2 0.91 -0.69 3.89 -5.83 3.89 -4.34 0.23 -3.77 -3.43 -2.63 -1.54 -4.4 13.62 -63.34 13.52 2.53 -4.41 21.38 3.56 7.49 -1.58 4.66 1.97 4.64 3.14 1.26 3.84 9.56 3.51 4.44 0.51 1.14 3.34 1.14 0.37 2.1 -6.97 17.38 -0.17 2.57 2.63 3.32 0.91 -0.05 4.91 -3.03 0.68 -1.09 1.56 0.66 -0.28 5.35 2.74 12.58 3.92 3.18 1.68 2.17 -0.72 4.08 1.07 2.81 1.06 1.09 2.48 -2.35 2.85 0.05 2.92 1.34 2.78 -0.68 3.79 -0.16 3.98 1.6 2.74 -0.3 0.5 -3.04 2.93 -0.76 1.26 1.52 0.44 2.94 1.42 1.21 -8.39 53.61 c 0 0 -87.97 -16.7 -94.96 -18.2 z" id="ID" class="state id"/>
  <path d="m 259.5 310.11 -83.75 -11.87 20.59 -112.54 46.78 8.75 -1.48 10.63 -2.31 13.17 7.81 0.93 16.41 1.8 8.21 0.86 -12.25 88.28 z" id="UT" class="state ut"/>
  <path d="m 144.91 382.63 -2.63 2.16 -0.32 1.45 0.48 0.97 18.91 10.67 12.12 7.6 14.71 8.57 16.81 10.02 12.29 2.42 24.95 2.7 17.26 -119.13 -83.74 -11.92 -3.09 16.41 -1.61 0.02 -1.71 2.63 -2.51 -0.11 -1.26 -2.74 -2.74 -0.34 -0.91 -1.14 -0.91 0 -0.91 0.57 -1.94 1.03 -0.11 6.97 -0.23 1.71 -0.57 12.57 -1.49 2.17 -0.57 3.32 2.74 4.92 1.26 5.83 0.8 1.03 1.03 0.57 -0.11 2.29 -1.6 1.37 -3.43 1.71 -1.94 1.94 -1.49 3.66 -0.57 4.92 -2.86 2.74 -2.06 0.69 0.14 0.83 -0.46 1.71 0.46 0.8 3.66 0.57 -0.57 2.74 -1.49 2.17 -3.77 0.91 z" id="AZ" class="state az"/>
  <path d="m 196.39 185.58 -23.64 128.82 -1.83 0.35 -1.57 2.41 -2.37 0.01 -1.47 -2.74 -2.62 -0.38 -0.77 -1.11 -1.04 -0.05 -2.78 1.64 -0.31 6.79 -0.36 5.78 -0.35 8.59 -1.45 2.09 -2.44 -1.07 -69.08 -104.2 18.99 -67.58 93.09 20.67 z" id="NV" class="state nv"/>
  <path d="m 148.72 175.53 8.85 -34.8 1.05 -4.23 2.35 -5.62 -0.62 -1.16 -2.51 -0.05 -1.28 -1.67 0.46 -1.46 0.5 -3.25 4.46 -5.49 1.83 -1.1 1.14 -1.14 1.49 -3.57 4.05 -5.67 3.57 -3.86 0.23 -3.45 -3.27 -2.47 -1.78 -4.64 -12.66 -3.61 -15.09 -3.54 -15.43 0.11 -0.46 -1.37 -5.49 2.06 -4.46 -0.57 -2.4 -1.6 -1.26 0.69 -4.69 -0.23 -1.71 -1.37 -5.26 -2.06 -0.8 0.11 -4.34 -1.49 -1.94 1.83 -6.17 -0.34 -5.94 -4.12 0.69 -0.8 0.23 -7.77 -2.29 -3.89 -4.12 -0.57 -0.69 -2.51 -2.35 -0.47 -5.8 2.06 -2.26 6.47 -3.23 10.02 -3.23 6.47 -5.01 14.06 -6.47 13.58 -8.08 12.61 -1.94 2.91 -0.81 8.57 0.39 12.08 112.58 26.32 z" id="OR" class="state or"/>
  <path d="m 102.07 7.61 4.36 1.45 9.7 2.75 8.57 1.94 20.05 5.66 22.96 5.66 15.22 3.21 -13.63 63.59 -12.45 -3.53 -15.51 -3.57 -15.23 0.03 -0.46 -1.34 -5.6 2.18 -4.6 -0.74 -2.15 -1.58 -1.31 0.66 -4.74 -0.14 -1.7 -1.35 -5.26 -2.11 -0.73 0.15 -4.39 -1.52 -1.89 1.82 -6.27 -0.3 -5.93 -4.13 0.78 -0.93 0.12 -7.68 -2.28 -3.84 -4.12 -0.61 -0.68 -2.51 -2.28 -0.46 -3.55 1.23 -2.26 -3.22 0.32 -2.91 2.75 -0.32 1.62 -4.04 -2.59 -1.13 0.16 -3.72 4.36 -0.65 -2.75 -2.75 -1.45 -7.11 0.65 -2.91 0 -7.92 -1.78 -3.23 2.26 -9.38 2.1 0.48 2.42 2.91 2.75 2.59 3.23 1.94 4.53 2.1 3.07 0.65 2.91 1.45 3.39 0.97 2.26 -0.16 0 -2.42 1.29 -1.13 2.1 -1.29 0.32 1.13 0.32 1.78 -2.26 0.48 -0.32 2.1 1.78 1.45 1.13 2.42 0.65 1.94 1.45 -0.16 0.16 -1.29 -0.97 -1.29 -0.48 -3.23 0.81 -1.78 -0.65 -1.45 0 -2.26 1.78 -3.56 -1.13 -2.59 -2.42 -4.85 0.32 -0.81 1.13 -0.81 z m -9.46 5.98 2.02 -0.16 0.48 1.37 1.54 -1.62 2.34 0 0.81 1.54 -1.54 1.7 0.65 0.81 -0.73 2.02 -1.37 0.4 c 0 0 -0.89 0.08 -0.89 -0.24 0 -0.32 1.45 -2.59 1.45 -2.59 l -1.7 -0.57 -0.32 1.45 -0.73 0.65 -1.54 -2.26 -0.48 -2.51 z" id="WA" class="state wa"/>
  <g id="ca">
    <title id="title3589">California</title>
    <path d="m 144.69 382.2 3.94 -0.49 1.49 -2.01 0.54 -2.94 -3.55 -0.59 -0.51 -0.67 0.48 -2.03 -0.16 -0.59 1.92 -0.62 3.04 -2.83 0.58 -5 1.38 -3.4 1.94 -2.17 3.52 -1.59 1.65 -1.6 0.07 -2.11 -0.99 -0.58 -1.02 -1.07 -1.16 -5.85 -2.69 -4.83 0.57 -3.5 -2.42 -1.03 -69.06 -104.18 18.9 -67.6 -67.08 -15.7 -1.51 4.73 -0.16 7.44 -5.17 11.8 -3.07 2.59 -0.32 1.13 -1.78 0.81 -1.45 4.2 -0.81 3.23 2.75 4.2 1.62 4.2 1.13 3.56 -0.32 6.47 -1.78 3.07 -0.65 5.82 -0.97 3.72 1.78 3.88 2.75 4.53 2.26 4.85 1.29 4.04 -0.32 3.23 -0.32 0.48 0 2.1 5.66 6.3 -0.48 2.42 -0.65 2.26 -0.65 1.94 0.16 8.24 2.1 3.72 1.94 2.59 2.75 0.48 0.97 2.75 -1.13 3.56 -2.1 1.62 -1.13 0 -0.81 3.88 0.48 2.91 3.23 4.36 1.62 5.33 1.45 4.69 1.29 3.07 3.39 5.82 1.45 2.59 0.48 2.91 1.62 0.97 0 2.42 -0.81 1.94 -1.78 7.11 -0.48 1.94 2.42 2.75 4.2 0.48 4.53 1.78 3.88 2.1 2.91 0 2.91 3.07 2.59 4.85 1.13 2.26 3.88 2.1 4.85 0.81 1.45 2.1 0.65 3.23 -1.45 0.65 0.32 0.97 3.23 0.81 2.75 0.16 3.16 -1.69 3.88 4.2 0.81 2.26 2.59 4.2 0.32 3.23 0 9.38 0.48 1.78 10.02 1.45 19.72 2.75 13.85 1.35 z m -88.14 -43.72 1.29 1.54 -0.16 1.29 -3.23 -0.08 -0.57 -1.21 -0.65 -1.45 3.31 -0.08 z m 1.94 0 1.21 -0.65 3.56 2.1 3.07 1.21 -0.89 0.65 -4.53 -0.24 -1.62 -1.62 -0.81 -1.45 z m 20.69 19.8 1.78 2.34 0.81 0.97 1.54 0.57 0.57 -1.45 -0.97 -1.78 -2.67 -2.02 -1.05 0.16 0 1.21 z m -1.45 8.65 1.78 3.15 1.21 1.94 -1.45 0.24 -1.29 -1.21 c 0 0 -0.73 -1.45 -0.73 -1.86 0 -0.4 0 -2.18 0 -2.18 l 0.48 -0.08 z" id="CA" class="state ca"/>
  </g>
  <g id="pr">
    <title id="title3593">Puerto Rico</title>
    <path id="PR" class="territory pr" d="M 569.22 530.23 C 569.22 530.23 570.07 528.09 570.07 528.09 C 570.07 528.09 571.79 528.52 571.79 528.52 C 571.79 528.52 573.5 529.8 573.5 529.8 C 573.5 529.8 580.78 530.66 580.78 530.66 C 580.78 530.66 588.07 530.23 588.07 530.23 C 588.07 530.23 591.07 530.23 591.07 530.23 C 591.07 530.23 593.64 531.09 593.64 531.09 C 593.64 531.09 595.35 529.8 595.35 529.8 C 595.35 529.8 597.49 529.8 597.49 529.8 C 597.49 529.8 602.63 530.23 602.63 530.23 C 602.63 530.23 607.78 531.52 607.78 531.52 C 607.78 531.52 609.49 533.23 609.49 533.23 C 609.49 533.23 612.49 533.23 612.49 533.23 C 612.49 533.23 612.92 535.8 612.92 535.8 C 612.92 535.8 612.49 537.52 612.49 537.52 C 612.49 537.52 609.06 537.94 609.06 537.94 C 609.06 537.94 606.92 538.8 606.92 538.8 C 606.92 538.8 606.06 540.94 606.06 540.94 C 606.06 540.94 604.78 543.08 604.78 543.08 C 604.78 543.08 602.21 544.37 602.21 544.37 C 602.21 544.37 597.06 544.37 597.06 544.37 C 597.06 544.37 592.78 544.37 592.78 544.37 C 592.78 544.37 590.64 543.51 590.64 543.51 C 590.64 543.51 590.64 543.51 590.64 543.51 C 590.64 543.51 586.35 543.51 586.35 543.51 C 586.35 543.51 584.21 542.66 584.21 542.66 C 584.21 542.66 580.78 543.51 580.78 543.51 C 580.78 543.51 576.5 543.51 576.5 543.51 C 576.5 543.51 574.36 541.8 574.36 541.8 C 574.36 541.8 571.79 542.66 571.79 542.66 C 571.79 542.66 568.36 543.08 568.36 543.08 C 568.36 543.08 567.93 540.94 567.93 540.94 C 567.93 540.94 568.79 539.66 568.79 539.66 C 568.79 539.66 569.64 537.52 569.64 537.52 C 569.64 537.52 568.79 534.94 568.79 534.94 C 568.79 534.94 565.36 532.37 565.36 532.37 C 565.36 532.37 566.65 531.52 566.65 531.52 C 566.65 531.52 569.22 530.23 569.22 530.23 z M 615.93 541.81 C 615.93 541.81 614.07 542.43 614.07 542.43 C 614.07 542.43 617.79 543.66 617.79 543.66 C 617.79 543.66 622.74 542.43 622.74 542.43 C 622.74 542.43 623.98 540.57 623.98 540.57 C 623.98 540.57 620.88 541.19 620.88 541.19 C 620.88 541.19 615.93 541.81 615.93 541.81 z M 624.6 537.47 C 624.6 537.47 623.05 536.54 623.05 536.54 C 623.05 536.54 625.22 534.99 625.22 534.99 C 625.22 534.99 625.84 536.54 625.84 536.54 C 625.84 536.54 624.6 537.47 624.6 537.47 z "/>
  </g>
  <g id="vi">
    <title id="title3597">U.S. Virgin Islands</title>
    <path id="VI" class="territory vi" d="M 645.38 524.07 C 645.38 524.07 643.92 525.16 643.92 525.16 C 643.92 525.16 642.1 526.26 642.1 526.26 C 642.1 526.26 642.46 527.72 642.46 527.72 C 642.46 527.72 644.29 528.44 644.29 528.44 C 644.29 528.44 646.84 528.08 646.84 528.08 C 646.84 528.08 647.93 529.9 647.93 529.9 C 647.93 529.9 649.76 529.9 649.76 529.9 C 649.76 529.9 650.85 528.81 650.85 528.81 C 650.85 528.81 654.86 528.08 654.86 528.08 C 654.86 528.08 656.68 527.72 656.68 527.72 C 656.68 527.72 658.14 526.62 658.14 526.62 C 658.14 526.62 657.42 525.16 657.42 525.16 C 657.42 525.16 655.23 525.16 655.23 525.16 C 655.23 525.16 650.12 524.07 650.12 524.07 C 650.12 524.07 645.38 524.07 645.38 524.07 z M 659.83 525.47 C 659.83 525.47 659.55 526.46 659.55 526.46 C 659.55 526.46 660.4 526.96 660.4 526.96 C 660.4 526.96 662.4 526.71 662.4 526.71 C 662.4 526.71 663.82 527.46 663.82 527.46 C 663.82 527.46 664.96 527.21 664.96 527.21 C 664.96 527.21 665.24 525.96 665.24 525.96 C 665.24 525.96 665.24 525.96 665.24 525.96 C 665.24 525.96 666.67 524.97 666.67 524.97 C 666.67 524.97 666.95 523.98 666.95 523.98 C 666.95 523.98 665.81 523.48 665.81 523.48 C 665.81 523.48 664.1 523.98 664.1 523.98 C 664.1 523.98 662.11 523.24 662.11 523.24 C 662.11 523.24 661.26 523.98 661.26 523.98 C 661.26 523.98 660.97 524.97 660.97 524.97 C 660.97 524.97 659.83 525.47 659.83 525.47 z M 654.53 545.89 C 654.53 545.89 657.13 545.24 657.13 545.24 C 657.13 545.24 658.76 545.56 658.76 545.56 C 658.76 545.56 661.04 544.26 661.04 544.26 C 661.04 544.26 662.02 544.59 662.02 544.59 C 662.02 544.59 662.67 545.56 662.67 545.56 C 662.67 545.56 663.65 547.19 663.65 547.19 C 663.65 547.19 665.6 546.22 665.6 546.22 C 665.6 546.22 666.58 546.87 666.58 546.87 C 666.58 546.87 670.85 546.28 670.85 546.28 C 670.85 546.28 671.34 548.71 671.34 548.71 C 671.34 548.71 669.51 549.47 669.51 549.47 C 669.51 549.47 666.26 549.47 666.26 549.47 C 666.26 549.47 660.72 551.1 660.72 551.1 C 660.72 551.1 658.44 550.78 658.44 550.78 C 658.44 550.78 654.53 551.43 654.53 551.43 C 654.53 551.43 653.23 550.78 653.23 550.78 C 653.23 550.78 652.25 551.43 652.25 551.43 C 652.25 551.43 649.64 551.75 649.64 551.75 C 649.64 551.75 648.1 551.26 649.32 550.45 C 651.27 549.15 650.29 546.87 650.29 546.87 C 650.29 546.87 654.53 545.89 654.53 545.89 z "/>
  </g>
  <g id="gu">
    <title id="title3601">Guam</title>
    <path id="GU" class="territory gu" d="M 584.94 560.61 C 584.98 560.61 585.03 560.61 585.07 560.61 C 585.5 560.61 585.91 560.75 586.33 560.82 C 586.88 560.91 587.12 561.57 587.59 561.77 C 588.08 561.97 588.22 562.4 588.59 562.71 C 588.7 562.8 588.81 562.98 588.85 563.02 C 589.57 563.63 588.09 564.21 589.73 563.86 C 589.76 563.86 591.02 564.34 591.24 564.39 C 591.86 564.52 592.53 564.5 593 564.6 C 593.6 564.72 592.4 565.5 592.12 565.96 C 591.86 566.4 591.99 567.05 591.99 567.54 C 591.99 568.15 591.86 568.51 591.74 568.9 C 591.6 569.38 591.28 569.7 590.99 569.95 C 590.67 570.21 590.09 570.48 589.6 570.58 C 588.96 570.72 589.01 571.11 588.09 571.11 C 587.65 571.11 587.59 572.15 587.46 572.37 C 587.08 573 586.33 572.37 586.08 573.21 C 585.91 573.75 585.58 573.73 585.19 574.04 C 584.83 574.35 584.29 574.53 583.93 574.67 C 583.33 574.93 582.95 575.2 582.17 575.2 C 581.86 575.2 581.28 576.13 581.16 576.25 C 580.8 576.66 580.62 576.91 580.28 577.19 C 580.13 577.32 579.09 577.1 578.65 577.19 C 578.58 577.21 578.65 578.63 578.65 578.77 C 578.65 579.01 577.82 579.4 577.76 579.5 C 577.65 579.69 578.02 580.75 578.02 581.08 C 578.02 581.59 578 582.18 577.89 582.55 C 577.75 583.03 577.77 583.6 577.13 583.6 C 576.47 583.6 577.5 584.42 577.64 584.54 C 577.86 584.72 577.81 585.65 577.89 585.9 C 578.1 586.59 577.51 586.83 577.51 587.37 C 577.51 587.41 576.5 587.95 576.38 588 C 576.02 588.15 575.68 588.58 575.37 588.84 C 574.89 589.25 574.79 589.44 574.36 589.79 C 573.95 590.13 573.37 590.1 572.73 590.21 C 572.14 590.31 571.65 590.42 570.96 590.42 C 570.58 590.42 570.07 589.78 569.83 589.58 C 569.29 589.12 569.12 589.83 568.82 588.84 C 568.8 588.75 568.41 588.01 568.32 587.69 C 568.15 587.12 568.2 586.75 568.07 586.32 C 567.96 585.95 567.58 585.74 567.44 585.28 C 567.28 584.74 567.36 584.19 567.06 583.7 C 566.76 583.2 566.18 583.39 566.18 582.55 C 566.18 581.83 566.52 581.77 566.81 581.29 C 567.01 580.96 567.21 580.38 567.31 580.03 C 567.42 579.68 567.87 579.1 568.07 578.77 C 568.12 578.68 567.94 578.34 567.94 578.14 L 564.79 575.72 C 565.35 574.8 565.48 575.13 566.43 575.72 C 566.95 576.05 567.36 576.05 567.94 575.93 C 568.42 575.84 568.39 574.67 568.39 575.67 C 568.39 576.4 568.22 575.56 568.9 575.35 C 570.06 575 569.95 575.06 568.95 575.62 C 568.72 575.74 570 576.09 569.7 575.09 C 569.55 574.57 568.69 575.11 568.95 574.25 C 569.04 573.94 570.87 574.34 570.96 574.36 C 571.51 574.47 571.91 573.73 572.48 573.73 C 573.02 573.73 573.71 573.52 574.36 573.52 C 574.85 573.52 575.74 573.29 576.13 573.21 C 576.9 573.04 577.25 573 577.76 572.68 C 578.12 572.46 577.54 571.32 577.51 571.21 C 577.35 570.67 579.26 571.21 579.28 571.21 C 580.09 571.35 580.18 570.5 580.28 570.16 C 580.49 569.48 580.59 569.3 581.29 569.01 C 582.06 568.69 582.3 568.19 582.3 567.54 C 582.3 566.55 582.73 566.25 582.93 565.44 C 583.07 564.82 582.78 564.65 583.31 564.07 C 583.86 563.46 584.25 563.23 584.56 562.71 C 584.85 562.24 584.82 561.84 584.82 561.24 C 584.82 560.69 584.97 560.64 584.44 560.19"/>
  </g>
  <g id="mp">
    <title id="title3605">Northern Mariana Islands</title>
    <path id="MP" class="territory mp" d="M 644.48 558.69 C 644.48 558.69 645.55 557.97 645.55 557.97 C 645.55 557.97 646.46 557.37 646.46 557.37 C 646.46 557.37 644.48 558.69 644.48 558.69 z M 644.56 564.25 C 644.56 564.25 646.54 566.23 646.54 566.23 C 646.54 566.23 646.36 564.36 646.36 564.36 C 646.36 564.36 644.56 564.25 644.56 564.25 z M 649.17 570.18 C 649.17 570.18 650.49 573.47 650.49 573.47 C 650.49 573.47 650.49 573.47 650.49 573.47 C 650.49 573.47 651.81 570.18 651.81 570.18 C 651.81 570.18 649.17 570.18 649.17 570.18 z M 654.44 576.77 C 654.44 576.77 654.44 580.06 654.44 580.06 C 654.44 580.06 656.42 580.72 656.42 580.72 C 656.42 580.72 657.08 577.43 657.08 577.43 C 657.08 577.43 654.44 576.77 654.44 576.77 z M 663.09 585.21 C 663.09 585.21 661.36 588.3 661.36 588.3 C 661.36 588.3 661.93 590.15 661.93 590.15 C 661.93 590.15 664.82 591.38 664.82 591.38 C 664.82 591.38 665.97 589.53 665.97 589.53 C 665.97 589.53 665.97 586.44 665.97 586.44 C 665.97 586.44 663.09 585.21 663.09 585.21 z "/>
  </g>
  <g id="as">
    <title id="title3609">American Samoa</title>
    <path id="AS" class="territory as" d="M 609.5 582.5 C 609.72 582.4 610.05 581.86 610.2 581.58 C 610.46 581.1 609.95 581.01 610.59 580.87 C 610.91 580.79 611.27 581.27 611.37 581.36 C 611.62 581.59 611.78 581.79 611.92 581.29 C 611.97 581.09 612.62 580.38 612.85 580.23 C 613.16 580.02 613.41 580 613.71 579.73 C 613.96 579.5 614.19 579.29 614.41 579.09 C 614.7 578.83 614.84 578.73 615.04 578.38 C 615.22 578.05 615.48 577.84 615.66 577.67 C 616.08 577.29 614.64 577.46 614.02 577.46 C 613.86 577.46 614.3 576.82 614.34 576.67 C 614.43 576.24 614.55 576.27 614.96 576.18 C 615.55 576.04 615.58 576.31 615.58 576.74 C 615.58 577.03 616.05 576.31 616.13 576.03 C 616.24 575.64 616.5 575.48 616.83 575.32 C 617.17 575.17 617.53 575.08 617.77 574.97 C 618.18 574.78 618.17 574.81 618.08 574.47 C 618.03 574.26 618.14 573.83 618.08 573.62 C 617.96 573.17 618.59 573.54 618.32 573.05 C 618.2 572.84 617.52 572.69 617.38 572.62 C 616.99 572.45 616.64 572.5 616.29 572.34 C 615.87 572.15 615.94 572.01 616.21 571.77 C 616.36 571.64 617.18 571.81 617.3 571.84 C 617.67 571.93 618.07 571.91 618.47 571.91 C 619 571.91 619.29 571.93 619.72 572.13 C 620.04 572.27 619.96 572.56 619.96 572.98 C 619.96 573.44 619.82 573.66 620.27 573.76 C 620.81 573.88 620.93 573.79 621.28 573.55 C 621.43 573.45 622.43 573.35 622.53 573.33 C 622.95 573.26 623.19 573.09 623.39 572.91 C 623.67 572.65 624.05 572.45 624.25 572.27 C 624.54 572 624.81 571.93 625.19 571.84 C 625.66 571.73 625.86 572.03 626.04 572.2 C 626.23 572.37 626.12 572.95 626.12 573.19 C 626.12 573.41 627.55 572.86 627.6 572.84 C 628.02 572.65 628.28 572.72 628.54 572.48 C 628.91 572.15 628.66 571.92 629.24 572.06 C 629.69 572.16 629.96 571.93 630.34 571.84 C 630.75 571.75 630.65 571.5 630.65 571.06 C 630.65 570.71 630.65 570.35 630.65 569.99 C 630.65 569.49 630.34 569.59 629.95 569.5 C 629.62 569.42 629.18 569.63 629.01 569.78 C 628.67 570.09 628.59 569.97 628.46 570.42 C 628.35 570.84 628.3 570.89 627.92 571.06 C 627.73 571.14 627.39 570.71 626.98 570.71 C 626.54 570.71 626.37 570.46 626.12 570.35 C 625.78 570.19 625.51 570.14 625.03 570.14 C 624.86 570.14 624.6 570.55 624.25 570.63 C 623.93 570.71 623.34 570.63 623.23 570.63 C 622.91 570.63 623.61 569.86 623.62 569.85 C 624.06 569.66 624.59 569.89 623.7 569.57 C 623.36 569.44 622.88 569.64 622.53 569.64 C 621.96 569.64 621.91 569.72 621.91 570.21 C 621.91 570.69 621.62 570.63 621.13 570.63 C 620.82 570.63 620.95 569.99 620.66 569.92 C 620.17 569.81 620.22 570.24 620.03 569.57 C 619.96 569.31 619.38 569.59 619.18 569.78 C 618.94 569.99 618.43 569.7 619.02 569.57 C 619.52 569.45 618.77 569 618.47 569 C 617.95 569 618.03 569.32 617.77 569.64 C 617.51 569.96 617.12 569.72 616.99 570.21 C 616.92 570.46 616.39 570.52 616.13 570.63 C 615.74 570.81 615.45 570.98 615.12 571.13 C 614.63 571.35 614.03 571.27 613.48 571.27 C 613.19 571.27 613.63 571.79 613.63 572.06 C 613.63 572.41 613.63 572.77 613.63 573.12 C 613.63 573.7 613.55 573.57 613.01 573.69 C 612.72 573.76 612.49 573.41 612.07 573.41 C 611.56 573.41 611.45 573.63 611.45 574.04 C 611.45 574.5 611.02 574.24 610.67 574.4 C 610.24 574.6 609.89 574.69 609.89 574.19 C 609.89 573.81 609.45 573.77 609.11 573.69 C 608.6 573.57 608.59 574.03 608.25 574.19 C 607.86 574.36 607.45 574.3 607.08 574.47 C 606.98 574.52 606.76 573.96 606.53 573.9 C 606.13 573.81 605.58 573.96 605.2 574.04 C 604.75 574.15 604.98 574.47 604.42 574.47 C 604 574.47 603.64 574.58 603.41 574.68 C 603.2 574.78 603.76 575.11 602.86 575.11 C 602.29 575.11 602.21 575.17 602 575.54 C 601.77 575.96 601.96 576.1 601.3 576.25 C 601.1 576.29 600.73 576.7 600.68 576.89 C 600.59 577.19 599.63 577.15 600.36 577.31 C 600.76 577.4 601.1 577.43 601.54 577.53 C 601.91 577.61 602.38 577.77 602.63 577.88 C 602.89 578 603.57 577.84 603.72 577.81 C 604.11 577.72 604.08 577.58 604.58 577.81 C 604.88 577.95 604.84 578.32 605.13 578.45 C 605.4 578.58 606.23 578.52 606.53 578.52 C 606.6 578.52 606.66 579.43 606.69 579.52 C 606.74 579.72 606.84 580.15 606.92 580.44 C 606.95 580.53 607.67 580.84 607.78 580.94 C 608 581.13 608.28 581.23 608.56 581.29 C 609.01 581.39 609.19 581.37 609.42 581.58 C 609.66 581.79 609.37 582.21 609.5 582.5 z"/>
  </g>
  <path class="territoryborder" d="M 559.78 593 L 559.78 515.67 L 682.02 515.67 L 682.02 593 M 632.77 515.67 L 632.77 593 M 559.78 557.53 L 682.02 557.52646M 597.89 556.61 L 597.89 593.74" id="path3614"/>
</svg>
